# WaveFront *.obj file (generated by CINEMA 4D)

mtllib ./墙柜.mtl

v -69.57319641113281 8.02405548095703 25
v -69.57319641113281 155.43998718261719 25
v -0.37049347162247 8.02405548095703 25
v -0.37049347162247 155.43998718261719 25
v -0.37049347162247 8.02405548095703 -25
v -0.37049347162247 155.43998718261719 -25
v -69.57319641113281 8.02405548095703 -25
v -69.57319641113281 155.43998718261719 -25
# 8 vertices

vn 0 0 1
vn 1 0 0
vn 0 0 -1
vn -1 0 0
vn 0 1 0
vn 0 -1 0
# 6 normals

vt 0 0 0
vt 0 1 0
vt 1 1 0
vt 1 0 0
# 4 texture coordinates

o 立方体.4
usemtl default
f 3/4/1 4/3/1 2/2/1 1/1/1
f 5/4/2 6/3/2 4/2/2 3/1/2
f 7/4/3 8/3/3 6/2/3 5/1/3
f 1/4/4 2/3/4 8/2/4 7/1/4
f 4/4/5 6/3/5 8/2/5 2/1/5
f 5/4/6 3/3/6 1/2/6 7/1/6

v 0.28483808040619 8.02405548095703 25
v 0.28483808040619 155.43998718261719 25
v 69.61769104003906 8.02405548095703 25
v 69.61769104003906 155.43998718261719 25
v 69.61769104003906 8.02405548095703 -25
v 69.61769104003906 155.43998718261719 -25
v 0.28483808040619 8.02405548095703 -25
v 0.28483808040619 155.43998718261719 -25
# 8 vertices

# 0 normal

# 0 texture coordinate

o 立方体.3
usemtl default
f 11/4/1 12/3/1 10/2/1 9/1/1
f 13/4/2 14/3/2 12/2/2 11/1/2
f 15/4/3 16/3/3 14/2/3 13/1/3
f 9/4/4 10/3/4 16/2/4 15/1/4
f 12/4/5 14/3/5 16/2/5 10/1/5
f 13/4/6 11/3/6 9/2/6 15/1/6

v 0.28483808040619 156.00456237792969 25
v 0.28483808040619 254.31924438476562 25
v 69.61769104003906 156.00456237792969 25
v 69.61769104003906 254.31924438476562 25
v 69.61769104003906 156.00456237792969 -25
v 69.61769104003906 254.31924438476562 -25
v 0.28483808040619 156.00456237792969 -25
v 0.28483808040619 254.31924438476562 -25
# 8 vertices

# 0 normal

# 0 texture coordinate

o 立方体.2
usemtl default
f 19/4/1 20/3/1 18/2/1 17/1/1
f 21/4/2 22/3/2 20/2/2 19/1/2
f 23/4/3 24/3/3 22/2/3 21/1/3
f 17/4/4 18/3/4 24/2/4 23/1/4
f 20/4/5 22/3/5 24/2/5 18/1/5
f 21/4/6 19/3/6 17/2/6 23/1/6

v -69.57319641113281 156.00456237792969 25
v -69.57319641113281 254.31924438476562 25
v -0.37049347162247 156.00456237792969 25
v -0.37049347162247 254.31924438476562 25
v -0.37049347162247 156.00456237792969 -25
v -0.37049347162247 254.31924438476562 -25
v -69.57319641113281 156.00456237792969 -25
v -69.57319641113281 254.31924438476562 -25
# 8 vertices

# 0 normal

# 0 texture coordinate

o 立方体.1
usemtl default
f 27/4/1 28/3/1 26/2/1 25/1/1
f 29/4/2 30/3/2 28/2/2 27/1/2
f 31/4/3 32/3/3 30/2/3 29/1/3
f 25/4/4 26/3/4 32/2/4 31/1/4
f 28/4/5 30/3/5 32/2/5 26/1/5
f 29/4/6 27/3/6 25/2/6 31/1/6

v -70 -5 25
v -70 5 25
v 70 -5 25
v 70 5 25
v 70 -5 -25
v 70 5 -25
v -70 -5 -25
v -70 5 -25
v -70 7 25
v 70 7 25
v 70 7 -25
v -70 7 -25
v -72 -5 25
v -72 5 25
v -72 -5 -25
v -72 5 -25
v -72 7 25
v -72 7 -25
v 72 -5 25
v 72 5 25
v 72 -5 -25
v 72 5 -25
v 72 7 25
v 72 7 -25
v -70 55 25
v -70 55 -25
v -72 55 25
v -72 55 -25
v 70 55 25
v 70 55 -25
v 72 55 25
v 72 55 -25
v -70 57 25
v -70 57 -25
v -72 57 25
v -72 57 -25
v 70 57 25
v 70 57 -25
v 72 57 25
v 72 57 -25
v -70 105 25
v -70 105 -25
v -72 105 25
v -72 105 -25
v 70 105 25
v 70 105 -25
v 72 105 25
v 72 105 -25
v -70 107 25
v -70 107 -25
v -72 107 25
v -72 107 -25
v 70 107 25
v 70 107 -25
v 72 107 25
v 72 107 -25
v -70 155 25
v -70 155 -25
v -72 155 25
v -72 155 -25
v 70 155 25
v 70 155 -25
v 72 155 25
v 72 155 -25
v -70 157 25
v -70 157 -25
v -72 157 25
v -72 157 -25
v 70 157 25
v 70 157 -25
v 72 157 25
v 72 157 -25
v -70 205 25
v -70 205 -25
v -72 205 25
v -72 205 -25
v 70 205 25
v 70 205 -25
v 72 205 25
v 72 205 -25
v -70 207 25
v -70 207 -25
v -72 207 25
v -72 207 -25
v 70 207 25
v 70 207 -25
v 72 207 25
v 72 207 -25
v -70 255 25
v -70 255 -25
v -72 255 25
v -72 255 -25
v 70 255 25
v 70 255 -25
v 72 255 25
v 72 255 -25
v -70 257 25
v -70 257 -25
v -72 257 25
v -72 257 -25
v 70 257 25
v 70 257 -25
v 72 257 25
v 72 257 -25
v -70 305 25
v -70 305 -25
v -72 305 25
v -72 305 -25
v 70 305 25
v 70 305 -25
v 72 305 25
v 72 305 -25
v -70 307 25
v -70 307 -25
v -72 307 25
v -72 307 -25
v 70 307 25
v 70 307 -25
v 72 307 25
v 72 307 -25
v -70 317 25
v -70 317 -25
v -72 317 25
v -72 317 -25
v 70 317 25
v 70 317 -25
v 72 317 25
v 72 317 -25
v 150 -5 25
v 150 5 25
v 150 -5 -25
v 150 5 -25
v 150 7 25
v 150 7 -25
v -150 -5 25
v -150 5 25
v -150 -5 -25
v -150 5 -25
v -150 7 25
v -150 7 -25
v -150 55 25
v -150 55 -25
v -150 57 25
v -150 57 -25
v 150 55 25
v 150 55 -25
v 150 57 25
v 150 57 -25
v -150 105 25
v -150 105 -25
v -150 107 25
v -150 107 -25
v 150 105 25
v 150 105 -25
v 150 107 25
v 150 107 -25
v -150 155 25
v -150 155 -25
v -150 157 25
v -150 157 -25
v 150 155 25
v 150 155 -25
v 150 157 25
v 150 157 -25
v -150 205 25
v -150 205 -25
v -150 207 25
v -150 207 -25
v 150 205 25
v 150 205 -25
v 150 207 25
v 150 207 -25
v -150 255 25
v -150 255 -25
v -150 257 25
v -150 257 -25
v 150 255 25
v 150 255 -25
v 150 257 25
v 150 257 -25
v -150 305 25
v -150 305 -25
v -150 307 25
v -150 307 -25
v -150 317 25
v -150 317 -25
v 150 305 25
v 150 305 -25
v 150 307 25
v 150 307 -25
v 150 317 25
v 150 317 -25
v 152 -5 25
v 152 5 25
v 152 -5 -25
v 152 5 -25
v 152 7 25
v 152 7 -25
v -152 -5 25
v -152 5 25
v -152 -5 -25
v -152 5 -25
v -152 7 25
v -152 7 -25
v 152 317 25
v 152 317 -25
v -152 317 25
v -152 317 -25
# 208 vertices

vn 0 0 0
# 1 normal

# 0 texture coordinate

o 立方体
usemtl default
f 35/4/1 36/3/1 34/2/1 33/1/1
f 227/4/2 228/3/2 226/2/2 225/1/2
f 39/4/3 40/3/3 38/2/3 37/1/3
f 231/4/4 232/3/4 234/2/4 233/1/4
f 42/4/5 43/3/5 44/2/5 41/1/5
f 37/4/6 35/3/6 33/2/6 39/1/6
f 236/2/4 234/2/4 232/1/4 235/1/4
f 43/3/3 38/3/3 40/2/3 44/2/3
f 229/4/2 226/4/2 228/3/2 230/3/2
f 41/1/1 34/1/1 36/4/1 42/4/1
f 48/2/3 40/2/3 39/1/3 47/1/3
f 45/4/1 33/4/1 34/3/1 46/3/1
f 47/1/6 39/1/6 33/4/6 45/4/6
f 46/1/1 34/1/1 41/1/1 49/1/1
f 50/2/3 44/2/3 40/2/3 48/2/3
f 155/1/5 153/1/5 154/2/5 156/2/5
f 52/2/1 36/2/1 35/1/1 51/1/1
f 53/4/3 37/4/3 38/3/3 54/3/3
f 51/1/6 35/1/6 37/4/6 53/4/6
f 54/3/3 38/3/3 43/3/3 56/3/3
f 55/4/1 42/4/1 36/4/1 52/4/1
f 160/3/5 158/3/5 157/4/5 159/4/5
f 58/2/3 44/2/3 50/2/3 60/2/3
f 57/1/2 41/1/2 44/2/2 58/2/2
f 59/1/1 49/1/1 41/1/1 57/1/1
f 60/2/4 50/2/4 49/1/4 59/1/4
f 61/4/1 42/4/1 55/4/1 63/4/1
f 62/3/4 43/3/4 42/4/4 61/4/4
f 64/3/3 56/3/3 43/3/3 62/3/3
f 63/4/2 55/4/2 56/3/2 64/3/2
f 66/2/3 58/2/3 60/2/3 68/2/3
f 65/1/2 57/1/2 58/2/2 66/2/2
f 67/1/1 59/1/1 57/1/1 65/1/1
f 176/2/4 174/2/4 173/1/4 175/1/4
f 69/4/1 61/4/1 63/4/1 71/4/1
f 70/3/4 62/3/4 61/4/4 69/4/4
f 72/3/3 64/3/3 62/3/3 70/3/3
f 179/4/2 177/4/2 178/3/2 180/3/2
f 74/2/3 66/2/3 68/2/3 76/2/3
f 73/1/2 65/1/2 66/2/2 74/2/2
f 75/1/1 67/1/1 65/1/1 73/1/1
f 76/2/4 68/2/4 67/1/4 75/1/4
f 77/4/1 69/4/1 71/4/1 79/4/1
f 78/3/4 70/3/4 69/4/4 77/4/4
f 80/3/3 72/3/3 70/3/3 78/3/3
f 79/4/2 71/4/2 72/3/2 80/3/2
f 82/2/3 74/2/3 76/2/3 84/2/3
f 81/1/2 73/1/2 74/2/2 82/2/2
f 83/1/1 75/1/1 73/1/1 81/1/1
f 184/2/4 182/2/4 181/1/4 183/1/4
f 85/4/1 77/4/1 79/4/1 87/4/1
f 86/3/4 78/3/4 77/4/4 85/4/4
f 88/3/3 80/3/3 78/3/3 86/3/3
f 187/4/2 185/4/2 186/3/2 188/3/2
f 90/2/3 82/2/3 84/2/3 92/2/3
f 89/1/2 81/1/2 82/2/2 90/2/2
f 91/1/1 83/1/1 81/1/1 89/1/1
f 92/2/4 84/2/4 83/1/4 91/1/4
f 93/4/1 85/4/1 87/4/1 95/4/1
f 94/3/4 86/3/4 85/4/4 93/4/4
f 96/3/3 88/3/3 86/3/3 94/3/3
f 95/4/2 87/4/2 88/3/2 96/3/2
f 98/2/3 90/2/3 92/2/3 100/2/3
f 97/1/2 89/1/2 90/2/2 98/2/2
f 99/1/1 91/1/1 89/1/1 97/1/1
f 192/2/4 190/2/4 189/1/4 191/1/4
f 101/4/1 93/4/1 95/4/1 103/4/1
f 102/3/4 94/3/4 93/4/4 101/4/4
f 104/3/3 96/3/3 94/3/3 102/3/3
f 195/4/2 193/4/2 194/3/2 196/3/2
f 106/2/3 98/2/3 100/2/3 108/2/3
f 105/1/2 97/1/2 98/2/2 106/2/2
f 107/1/1 99/1/1 97/1/1 105/1/1
f 108/2/4 100/2/4 99/1/4 107/1/4
f 109/4/1 101/4/1 103/4/1 111/4/1
f 110/3/4 102/3/4 101/4/4 109/4/4
f 112/3/3 104/3/3 102/3/3 110/3/3
f 111/4/2 103/4/2 104/3/2 112/3/2
f 114/2/3 106/2/3 108/2/3 116/2/3
f 113/1/2 105/1/2 106/2/2 114/2/2
f 115/1/1 107/1/1 105/1/1 113/1/1
f 200/2/4 198/2/4 197/1/4 199/1/4
f 117/4/1 109/4/1 111/4/1 119/4/1
f 118/3/4 110/3/4 109/4/4 117/4/4
f 120/3/3 112/3/3 110/3/3 118/3/3
f 203/4/2 201/4/2 202/3/2 204/3/2
f 122/2/3 114/2/3 116/2/3 124/2/3
f 121/1/2 113/1/2 114/2/2 122/2/2
f 123/1/1 115/1/1 113/1/1 121/1/1
f 124/2/4 116/2/4 115/1/4 123/1/4
f 125/4/1 117/4/1 119/4/1 127/4/1
f 126/3/4 118/3/4 117/4/4 125/4/4
f 128/3/3 120/3/3 118/3/3 126/3/3
f 127/4/2 119/4/2 120/3/2 128/3/2
f 130/2/3 122/2/3 124/2/3 132/2/3
f 129/1/7 130/2/7 130/2/7
f 131/1/1 123/1/1 121/1/1 129/1/1
f 208/2/4 206/2/4 205/1/4 207/1/4
f 133/4/1 125/4/1 127/4/1 135/4/1
f 129/4/5 133/4/5 134/3/5 130/3/5
f 136/3/3 128/3/3 126/3/3 134/3/3
f 211/4/2 209/4/2 210/3/2 212/3/2
f 138/2/3 130/2/3 132/2/3 140/2/3
f 137/1/2 129/1/2 130/2/2 138/2/2
f 139/1/1 131/1/1 129/1/1 137/1/1
f 140/2/4 132/2/4 131/1/4 139/1/4
f 141/4/1 133/4/1 135/4/1 143/4/1
f 142/3/4 134/3/4 133/4/4 141/4/4
f 144/3/3 136/3/3 134/3/3 142/3/3
f 143/4/2 135/4/2 136/3/2 144/3/2
f 146/2/3 138/2/3 140/2/3 148/2/3
f 158/2/5 154/2/5 153/1/5 157/1/5
f 147/1/1 139/1/1 137/1/1 145/1/1
f 216/2/4 214/2/4 213/1/4 215/1/4
f 149/4/1 141/4/1 143/4/1 151/4/1
f 150/2/3 146/2/3 154/2/3 158/2/3
f 152/3/3 144/3/3 142/3/3 150/3/3
f 221/4/2 219/4/2 220/3/2 222/3/2
f 154/2/3 146/2/3 148/2/3 156/2/3
f 157/1/1 153/1/1 145/1/1 149/1/1
f 155/1/1 147/1/1 145/1/1 153/1/1
f 218/2/4 216/2/4 215/1/4 217/1/4
f 157/4/1 149/4/1 151/4/1 159/4/1
f 149/1/1 145/1/1 137/1/1 141/1/1
f 160/3/3 152/3/3 150/3/3 158/3/3
f 223/4/2 221/4/2 222/3/2 224/3/2
f 142/2/3 138/2/3 146/2/3 150/2/3
f 141/1/6 137/1/6 138/2/6 142/2/6
f 121/4/1 125/4/1 133/4/1 129/4/1
f 122/3/6 126/3/6 125/4/6 121/4/6
f 130/3/3 134/3/3 126/3/3 122/3/3
f 130/2/7 122/2/7 122/2/7
f 122/2/7 121/1/7 121/1/7
f 121/1/7 129/1/7 129/1/7
f 162/2/1 52/2/1 51/1/1 161/1/1
f 163/4/3 53/4/3 54/3/3 164/3/3
f 161/1/6 51/1/6 53/4/6 163/4/6
f 164/3/3 54/3/3 56/3/3 166/3/3
f 165/4/1 55/4/1 52/4/1 162/4/1
f 166/3/5 56/3/5 55/4/5 165/4/5
f 170/2/3 48/2/3 47/1/3 169/1/3
f 167/4/1 45/4/1 46/3/1 168/3/1
f 169/1/6 47/1/6 45/4/6 167/4/6
f 168/1/1 46/1/1 49/1/1 171/1/1
f 172/2/3 50/2/3 48/2/3 170/2/3
f 171/1/5 49/1/5 50/2/5 172/2/5
f 173/1/1 59/1/1 67/1/1 175/1/1
f 174/2/6 60/2/6 59/1/6 173/1/6
f 176/2/3 68/2/3 60/2/3 174/2/3
f 175/1/5 67/1/5 68/2/5 176/2/5
f 178/3/3 64/3/3 72/3/3 180/3/3
f 177/4/6 63/4/6 64/3/6 178/3/6
f 179/4/1 71/4/1 63/4/1 177/4/1
f 180/3/5 72/3/5 71/4/5 179/4/5
f 181/1/1 75/1/1 83/1/1 183/1/1
f 182/2/6 76/2/6 75/1/6 181/1/6
f 184/2/3 84/2/3 76/2/3 182/2/3
f 183/1/5 83/1/5 84/2/5 184/2/5
f 186/3/3 80/3/3 88/3/3 188/3/3
f 185/4/6 79/4/6 80/3/6 186/3/6
f 187/4/1 87/4/1 79/4/1 185/4/1
f 188/3/5 88/3/5 87/4/5 187/4/5
f 189/1/1 91/1/1 99/1/1 191/1/1
f 190/2/6 92/2/6 91/1/6 189/1/6
f 192/2/3 100/2/3 92/2/3 190/2/3
f 191/1/5 99/1/5 100/2/5 192/2/5
f 194/3/3 96/3/3 104/3/3 196/3/3
f 193/4/6 95/4/6 96/3/6 194/3/6
f 195/4/1 103/4/1 95/4/1 193/4/1
f 196/3/5 104/3/5 103/4/5 195/4/5
f 197/1/1 107/1/1 115/1/1 199/1/1
f 198/2/6 108/2/6 107/1/6 197/1/6
f 200/2/3 116/2/3 108/2/3 198/2/3
f 199/1/5 115/1/5 116/2/5 200/2/5
f 202/3/3 112/3/3 120/3/3 204/3/3
f 201/4/6 111/4/6 112/3/6 202/3/6
f 203/4/1 119/4/1 111/4/1 201/4/1
f 204/3/5 120/3/5 119/4/5 203/4/5
f 205/1/1 123/1/1 131/1/1 207/1/1
f 206/2/6 124/2/6 123/1/6 205/1/6
f 208/2/3 132/2/3 124/2/3 206/2/3
f 207/1/5 131/1/5 132/2/5 208/2/5
f 210/3/3 128/3/3 136/3/3 212/3/3
f 209/4/6 127/4/6 128/3/6 210/3/6
f 211/4/1 135/4/1 127/4/1 209/4/1
f 212/3/5 136/3/5 135/4/5 211/4/5
f 213/1/1 139/1/1 147/1/1 215/1/1
f 214/2/6 140/2/6 139/1/6 213/1/6
f 216/2/3 148/2/3 140/2/3 214/2/3
f 215/1/1 147/1/1 155/1/1 217/1/1
f 218/2/3 156/2/3 148/2/3 216/2/3
f 217/1/5 155/1/5 156/2/5 218/2/5
f 220/3/3 144/3/3 152/3/3 222/3/3
f 219/4/6 143/4/6 144/3/6 220/3/6
f 221/4/1 151/4/1 143/4/1 219/4/1
f 222/3/3 152/3/3 160/3/3 224/3/3
f 223/4/1 159/4/1 151/4/1 221/4/1
f 224/3/5 160/3/5 159/4/5 223/4/5
f 162/2/7 161/1/7 161/1/7
f 163/4/7 164/3/7 164/3/7
f 161/1/7 163/4/7 163/4/7
f 164/3/7 166/3/7 166/3/7
f 165/4/7 162/4/7 162/4/7
f 166/3/7 165/4/7 165/4/7
f 226/2/1 162/2/1 161/1/1 225/1/1
f 227/4/3 163/4/3 164/3/3 228/3/3
f 225/1/6 161/1/6 163/4/6 227/4/6
f 228/3/3 164/3/3 166/3/3 230/3/3
f 229/4/1 165/4/1 162/4/1 226/4/1
f 238/3/5 224/3/5 223/4/5 237/4/5
f 234/2/3 170/2/3 169/1/3 233/1/3
f 231/4/1 167/4/1 168/3/1 232/3/1
f 233/1/6 169/1/6 167/4/6 231/4/6
f 232/1/1 168/1/1 171/1/1 235/1/1
f 236/2/3 172/2/3 170/2/3 234/2/3
f 239/1/5 217/1/5 218/2/5 240/2/5
f 223/4/1 165/4/1 229/4/1 237/4/1
f 224/3/4 166/3/4 165/4/4 223/4/4
f 238/3/3 230/3/3 166/3/3 224/3/3
f 237/4/2 229/4/2 230/3/2 238/3/2
f 218/2/3 172/2/3 236/2/3 240/2/3
f 217/1/2 171/1/2 172/2/2 218/2/2
f 239/1/1 235/1/1 171/1/1 217/1/1
f 240/2/4 236/2/4 235/1/4 239/1/4

