# WaveFront *.obj file (generated by CINEMA 4D)

mtllib ./墙柜2.mtl

v -59.36091613769531 13.92183971405029 26.56574821472168
v -59.36091613769531 160.31608581542969 26.56574821472168
v 9.84178924560547 13.92183971405029 26.56574821472168
v 9.84178924560547 160.31608581542969 26.56574821472168
v 9.84178924560547 13.92183971405029 -23.43425178527832
v 9.84178924560547 160.31608581542969 -23.43425178527832
v -59.36091613769531 13.92183971405029 -23.43425178527832
v -59.36091613769531 160.31608581542969 -23.43425178527832
# 8 vertices

vn 0 0 1
vn 1 0 0
vn 0 0 -1
vn -1 0 0
vn 0 1 0
vn 0 -1 0
# 6 normals

vt 0 0 0
vt 0 1 0
vt 1 1 0
vt 1 0 0
# 4 texture coordinates

o 立方体.4
usemtl default
f 3/4/1 4/3/1 2/2/1 1/1/1
f 5/4/2 6/3/2 4/2/2 3/1/2
f 7/4/3 8/3/3 6/2/3 5/1/3
f 1/4/4 2/3/4 8/2/4 7/1/4
f 4/4/5 6/3/5 8/2/5 2/1/5
f 5/4/6 3/3/6 1/2/6 7/1/6

v 10.49712085723877 13.92183971405029 26.56574821472168
v 10.49712085723877 160.31608581542969 26.56574821472168
v 79.82997131347656 13.92183971405029 26.56574821472168
v 79.82997131347656 160.31608581542969 26.56574821472168
v 79.82997131347656 13.92183971405029 -23.43425178527832
v 79.82997131347656 160.31608581542969 -23.43425178527832
v 10.49712085723877 13.92183971405029 -23.43425178527832
v 10.49712085723877 160.31608581542969 -23.43425178527832
# 8 vertices

# 0 normal

# 0 texture coordinate

o 立方体.3
usemtl default
f 11/4/1 12/3/1 10/2/1 9/1/1
f 13/4/2 14/3/2 12/2/2 11/1/2
f 15/4/3 16/3/3 14/2/3 13/1/3
f 9/4/4 10/3/4 16/2/4 15/1/4
f 12/4/5 14/3/5 16/2/5 10/1/5
f 13/4/6 11/3/6 9/2/6 15/1/6

v 80.92624664306641 13.92183971405029 26.56574821472168
v 80.92624664306641 160.31608581542969 26.56574821472168
v 150.25909423828125 13.92183971405029 26.56574821472168
v 150.25909423828125 160.31608581542969 26.56574821472168
v 150.25909423828125 13.92183971405029 -23.43425178527832
v 150.25909423828125 160.31608581542969 -23.43425178527832
v 80.92624664306641 13.92183971405029 -23.43425178527832
v 80.92624664306641 160.31608581542969 -23.43425178527832
# 8 vertices

# 0 normal

# 0 texture coordinate

o 立方体.1
usemtl default
f 19/4/1 20/3/1 18/2/1 17/1/1
f 21/4/2 22/3/2 20/2/2 19/1/2
f 23/4/3 24/3/3 22/2/3 21/1/3
f 17/4/4 18/3/4 24/2/4 23/1/4
f 20/4/5 22/3/5 24/2/5 18/1/5
f 21/4/6 19/3/6 17/2/6 23/1/6

v -59.78771591186523 0.89778429269791 26.56574821472168
v -59.78771591186523 10.89778423309326 26.56574821472168
v 80.2122802734375 0.89778429269791 26.56574821472168
v 80.2122802734375 10.89778423309326 26.56574821472168
v 80.2122802734375 0.89778429269791 -23.43425178527832
v 80.2122802734375 10.89778423309326 -23.43425178527832
v -59.78771591186523 0.89778429269791 -23.43425178527832
v -59.78771591186523 10.89778423309326 -23.43425178527832
v -59.78771591186523 12.89778423309326 26.56574821472168
v 80.2122802734375 12.89778423309326 26.56574821472168
v 80.2122802734375 12.89778423309326 -23.43425178527832
v -59.78771591186523 12.89778423309326 -23.43425178527832
v -61.78771591186523 0.89778429269791 26.56574821472168
v -61.78771591186523 10.89778423309326 26.56574821472168
v -61.78771591186523 0.89778429269791 -23.43425178527832
v -61.78771591186523 10.89778423309326 -23.43425178527832
v -61.78771591186523 12.89778423309326 26.56574821472168
v -61.78771591186523 12.89778423309326 -23.43425178527832
v -59.74982833862305 162.89778137207031 26.56574821472168
v -59.74982833862305 162.89778137207031 -23.43425178527832
v 150.61013793945312 12.89778423309326 26.56574821472168
v 150.61013793945312 10.89778423309326 -23.43425178527832
v 150.61013793945312 12.89778423309326 -23.43425178527832
v 150.61013793945312 0.89778429269791 -23.43425178527832
v -59.78771591186523 60.89778518676758 26.56574821472168
v -59.78771591186523 60.89778518676758 -23.43425178527832
v -61.78771591186523 60.89778518676758 26.56574821472168
v -61.78771591186523 60.89778518676758 -23.43425178527832
v 150.61013793945312 310.89779663085938 26.56574821472168
v 150.61013793945312 310.89779663085938 -23.43425178527832
v 150.61013793945312 312.89779663085938 26.56574821472168
v 150.61013793945312 312.89779663085938 -23.43425178527832
v -59.78771591186523 62.89778518676758 26.56574821472168
v -59.78771591186523 62.89778518676758 -23.43425178527832
v -61.78771591186523 62.89778518676758 26.56574821472168
v -61.78771591186523 62.89778518676758 -23.43425178527832
v 150.582763671875 210.89778137207031 26.56574821472168
v 150.582763671875 210.89778137207031 -23.43425178527832
v 150.582763671875 212.89778137207031 26.56574821472168
v 150.582763671875 212.89778137207031 -23.43425178527832
v -59.78771591186523 110.89778137207031 26.56574821472168
v -59.78771591186523 110.89778137207031 -23.43425178527832
v -61.78771591186523 110.89778137207031 26.56574821472168
v -61.78771591186523 110.89778137207031 -23.43425178527832
v 150.61013793945312 322.89779663085938 26.56574821472168
v 150.61013793945312 322.89779663085938 -23.43425178527832
v 150.61013793945312 0.89778429269791 26.56574821472168
v 150.61013793945312 10.89778423309326 26.56574821472168
v -59.78771591186523 112.89778137207031 26.56574821472168
v -59.78771591186523 112.89778137207031 -23.43425178527832
v -61.78771591186523 112.89778137207031 26.56574821472168
v -61.78771591186523 112.89778137207031 -23.43425178527832
v 150.61013793945312 262.89779663085938 -23.43425178527832
v 150.61013793945312 262.89779663085938 26.56574821472168
v 150.61013793945312 260.89779663085938 -23.43425178527832
v 150.61013793945312 260.89779663085938 26.56574821472168
v -59.78771591186523 160.89778137207031 26.56574821472168
v -59.78771591186523 160.89778137207031 -23.43425178527832
v -61.78771591186523 160.89778137207031 26.56574821472168
v -61.78771591186523 160.89778137207031 -23.43425178527832
v 80.2122802734375 160.89778137207031 26.56574821472168
v 80.2122802734375 160.89778137207031 -23.43425178527832
v 82.2122802734375 160.89778137207031 26.56574821472168
v 82.2122802734375 160.89778137207031 -23.43425178527832
v -59.78771591186523 162.89778137207031 26.56574821472168
v -59.78771591186523 162.89778137207031 -23.43425178527832
v -61.78771591186523 162.89778137207031 26.56574821472168
v -61.78771591186523 162.89778137207031 -23.43425178527832
v 80.2122802734375 162.89778137207031 26.56574821472168
v 80.2122802734375 162.89778137207031 -23.43425178527832
v 82.2122802734375 162.89778137207031 26.56574821472168
v 82.2122802734375 162.89778137207031 -23.43425178527832
v -59.78771591186523 210.89778137207031 26.56574821472168
v -59.78771591186523 210.89778137207031 -23.43425178527832
v -61.78771591186523 210.89778137207031 26.56574821472168
v -61.78771591186523 210.89778137207031 -23.43425178527832
v 80.2122802734375 210.89778137207031 26.56574821472168
v 80.2122802734375 210.89778137207031 -23.43425178527832
v 82.2122802734375 210.89778137207031 26.56574821472168
v 82.2122802734375 210.89778137207031 -23.43425178527832
v -59.78771591186523 212.89778137207031 26.56574821472168
v -59.78771591186523 212.89778137207031 -23.43425178527832
v -61.78771591186523 212.89778137207031 26.56574821472168
v -61.78771591186523 212.89778137207031 -23.43425178527832
v 80.2122802734375 212.89778137207031 26.56574821472168
v 80.2122802734375 212.89778137207031 -23.43425178527832
v 82.2122802734375 212.89778137207031 26.56574821472168
v 82.2122802734375 212.89778137207031 -23.43425178527832
v -59.78771591186523 260.89779663085938 26.56574821472168
v -59.78771591186523 260.89779663085938 -23.43425178527832
v -61.78771591186523 260.89779663085938 26.56574821472168
v -61.78771591186523 260.89779663085938 -23.43425178527832
v 80.2122802734375 260.89779663085938 26.56574821472168
v 80.2122802734375 260.89779663085938 -23.43425178527832
v 82.2122802734375 260.89779663085938 26.56574821472168
v 82.2122802734375 260.89779663085938 -23.43425178527832
v -59.78771591186523 262.89779663085938 26.56574821472168
v -59.78771591186523 262.89779663085938 -23.43425178527832
v -61.78771591186523 262.89779663085938 26.56574821472168
v -61.78771591186523 262.89779663085938 -23.43425178527832
v 80.2122802734375 262.89779663085938 26.56574821472168
v 80.2122802734375 262.89779663085938 -23.43425178527832
v 82.2122802734375 262.89779663085938 26.56574821472168
v 82.2122802734375 262.89779663085938 -23.43425178527832
v -59.78771591186523 310.89779663085938 26.56574821472168
v -59.78771591186523 310.89779663085938 -23.43425178527832
v -61.78771591186523 310.89779663085938 26.56574821472168
v -61.78771591186523 310.89779663085938 -23.43425178527832
v 80.2122802734375 310.89779663085938 26.56574821472168
v 80.2122802734375 310.89779663085938 -23.43425178527832
v 82.2122802734375 310.89779663085938 26.56574821472168
v 82.2122802734375 310.89779663085938 -23.43425178527832
v -59.78771591186523 312.89779663085938 26.56574821472168
v -59.78771591186523 312.89779663085938 -23.43425178527832
v -61.78771591186523 312.89779663085938 26.56574821472168
v -61.78771591186523 312.89779663085938 -23.43425178527832
v 80.2122802734375 312.89779663085938 26.56574821472168
v 80.2122802734375 312.89779663085938 -23.43425178527832
v 82.2122802734375 312.89779663085938 26.56574821472168
v 82.2122802734375 312.89779663085938 -23.43425178527832
v -59.78771591186523 322.89779663085938 26.56574821472168
v -59.78771591186523 322.89779663085938 -23.43425178527832
v -61.78771591186523 322.89779663085938 26.56574821472168
v -61.78771591186523 322.89779663085938 -23.43425178527832
v 80.2122802734375 322.89779663085938 26.56574821472168
v 80.2122802734375 322.89779663085938 -23.43425178527832
v 82.2122802734375 322.89779663085938 26.56574821472168
v 82.2122802734375 322.89779663085938 -23.43425178527832
v 152.61013793945312 322.89779663085938 -23.43425178527832
v 152.61013793945312 322.89779663085938 26.56574821472168
v 152.61013793945312 12.89778423309326 -23.43425178527832
v 152.61013793945312 12.89778423309326 26.56574821472168
v 152.61013793945312 10.89778423309326 -23.43425178527832
v 152.61013793945312 0.89778429269791 -23.43425178527832
v 152.61013793945312 10.89778423309326 26.56574821472168
v 152.61013793945312 0.89778429269791 26.56574821472168
v -59.74982833862305 160.89778137207031 26.56574821472168
v -59.74982833862305 160.89778137207031 -23.43425178527832
v 150.65962219238281 160.89778137207031 26.56574821472168
v 150.65962219238281 160.89778137207031 -23.43425178527832
v 150.65962219238281 162.89778137207031 26.56574821472168
v 150.65962219238281 162.89778137207031 -23.43425178527832
v -59.77909851074219 210.89778137207031 26.56574821472168
v -59.77909851074219 210.89778137207031 -23.43425178527832
v -59.77909851074219 212.89778137207031 26.56574821472168
v -59.77909851074219 212.89778137207031 -23.43425178527832
v 11.47522926330566 322.89779663085938 -23.43425178527832
v 11.47522926330566 312.89779663085938 -23.43425178527832
v 11.47522926330566 310.89779663085938 -23.43425178527832
v 11.47522926330566 310.89779663085938 26.56574821472168
v 11.47522926330566 312.89779663085938 26.56574821472168
v 11.47522926330566 322.89779663085938 26.56574821472168
v 9.04008769989014 322.89779663085938 -23.43425178527832
v 9.04008769989014 312.89779663085938 -23.43425178527832
v 9.04008769989014 310.89779663085938 -23.43425178527832
v 9.04008769989014 310.89779663085938 26.56574821472168
v 9.04008769989014 312.89779663085938 26.56574821472168
v 9.04008769989014 322.89779663085938 26.56574821472168
v 9.04008769989014 310.89779663085938 24.3381519317627
v 11.47522926330566 310.89779663085938 24.3381519317627
v 9.04008769989014 310.89779663085938 -21.18271636962891
v 11.47522926330566 310.89779663085938 -21.18271636962891
v 9.04008769989014 262.91061401367188 24.3381519317627
v 11.47522926330566 262.91061401367188 24.3381519317627
v 9.04008769989014 262.91061401367188 -21.18271636962891
v 11.47522926330566 262.91061401367188 -21.18271636962891
v 9.03635025024414 160.89778137207031 26.56574821472168
v 9.03635025024414 162.89778137207031 26.56574821472168
v 9.03635025024414 162.89778137207031 -23.43425178527832
v 9.03635025024414 160.89778137207031 -23.43425178527832
v 11.47522926330566 160.89778137207031 26.56574821472168
v 11.47522926330566 160.89778137207031 -23.43425178527832
v 11.47522926330566 162.89778137207031 -23.43425178527832
v 11.47522926330566 162.89778137207031 26.56574821472168
v 11.47522926330566 162.89778137207031 -21.18303680419922
v 9.03635025024414 162.89778137207031 -21.18303680419922
v 11.47522926330566 162.89778137207031 24.31627082824707
v 9.03635025024414 162.89778137207031 24.31627082824707
v 11.47522926330566 210.87281799316406 -21.18303680419922
v 9.03635025024414 210.87281799316406 -21.18303680419922
v 11.47522926330566 210.87281799316406 24.31627082824707
v 9.03635025024414 210.87281799316406 24.31627082824707
# 182 vertices

vn 0 0 0
# 1 normal

vt 1 0.16666674613953 0
vt 0 0.16666674613953 0
vt 0 0.91426879167557 0
vt 0 0.05070281028748 0
vt 0 0.91668057441711 0
vt 0 0.05042898654938 0
vt 1 0.10587465763092 0
vt 1 0.91560041904449 0
vt 1 0.90649741888046 0
vt 1 0.12450647354126 0
# 10 texture coordinates

o 立方体
usemtl default
f 37/2/4 38/6/4 41/1/4 42/4/4 40/5/4 39/3/4
f 133/1/6 174/1/6 184/8/6 186/7/6 173/2/6 134/2/6
f 185/8/7 183/10/6 180/1/6 129/1/6 130/2/6 179/2/6
f 202/10/7 200/12/5 193/3/5 44/3/5 43/4/5 192/4/5
f 199/12/7 201/14/5 198/4/5 93/4/5 94/3/5 197/3/5
f 27/4/1 28/3/1 26/2/1 25/1/1
f 158/4/2 157/3/2 159/2/2 160/1/2
f 31/4/3 32/3/3 30/2/3 29/1/3
f 154/4/2 156/4/2 155/3/2 153/3/2
f 34/4/5 35/3/5 36/2/5 33/1/5
f 29/4/6 27/3/6 25/2/6 31/1/6
f 153/3/3 155/3/3 47/3/3 70/3/3
f 35/3/3 30/3/3 32/2/3 36/2/3
f 156/4/2 159/4/2 157/3/2 155/3/2
f 33/1/1 26/1/1 28/4/1 34/4/1
f 40/2/3 32/2/3 31/1/3 39/1/3
f 37/4/1 25/4/1 26/3/1 38/3/1
f 39/1/6 31/1/6 25/4/6 37/4/6
f 38/1/1 26/1/1 33/1/1 41/1/1
f 42/2/3 36/2/3 32/2/3 40/2/3
f 147/1/5 145/1/5 146/2/5 148/2/5
f 159/2/1 72/2/1 71/1/1 160/1/1
f 46/3/7 47/3/7 47/3/7
f 47/3/7 45/4/7 45/4/7
f 71/1/7 48/4/7 48/4/7
f 45/4/7 72/4/7 72/4/7
f 152/3/5 150/3/5 149/4/5 151/4/5
f 50/2/3 36/2/3 42/2/3 52/2/3
f 49/1/2 33/1/2 36/2/2 50/2/2
f 51/1/1 41/1/1 33/1/1 49/1/1
f 52/2/4 42/2/4 41/1/4 51/1/4
f 166/1/2 165/4/2 163/3/2 164/2/2
f 69/1/4 70/4/4 47/3/4 45/2/4
f 64/1/2 63/4/2 61/3/2 62/2/2
f 193/3/3 197/3/3 196/3/3 194/3/3
f 58/2/3 50/2/3 52/2/3 60/2/3
f 57/1/2 49/1/2 50/2/2 58/2/2
f 59/1/1 51/1/1 49/1/1 57/1/1
f 62/2/3 104/2/3 112/1/3 64/1/3
f 194/3/6 196/3/6 195/4/6 191/4/6
f 191/4/1 195/4/1 198/4/1 192/4/1
f 54/3/3 136/3/3 144/3/3 56/3/3
f 61/3/6 103/3/6 104/2/6 62/2/6
f 66/2/3 58/2/3 60/2/3 68/2/3
f 65/1/2 57/1/2 58/2/2 66/2/2
f 67/1/1 59/1/1 57/1/1 65/1/1
f 68/2/4 60/2/4 59/1/4 67/1/4
f 53/4/6 135/4/6 136/3/6 54/3/6
f 55/4/1 143/4/1 135/4/1 53/4/1
f 77/3/5 128/3/5 127/4/5 78/4/5
f 78/4/1 127/4/1 119/4/1 80/4/1
f 74/2/3 66/2/3 68/2/3 76/2/3
f 73/1/2 65/1/2 66/2/2 74/2/2
f 75/1/1 67/1/1 65/1/1 73/1/1
f 69/4/1 45/4/1 156/4/1 154/4/1
f 80/4/6 119/4/6 120/3/6 79/3/6
f 79/3/3 120/3/3 128/3/3 77/3/3
f 56/3/3 144/3/3 152/3/3 70/3/3
f 63/4/1 111/4/1 103/3/1 61/3/1
f 82/2/3 74/2/3 76/2/3 84/2/3
f 81/1/2 73/1/2 74/2/2 82/2/2
f 83/1/1 75/1/1 73/1/1 81/1/1
f 84/2/4 76/2/4 75/1/4 83/1/4
f 69/4/1 151/4/1 143/4/1 55/4/1
f 70/3/5 152/3/5 151/4/5 69/4/5
f 72/2/7 71/1/7 71/1/7
f 48/4/7 46/3/7 46/3/7
f 90/2/3 82/2/3 84/2/3 92/2/3
f 89/1/2 81/1/2 82/2/2 90/2/2
f 91/1/1 83/1/1 81/1/1 89/1/1
f 153/3/5 70/3/5 69/4/5 154/4/5
f 93/4/1 85/4/1 87/4/1 95/4/1
f 44/3/4 162/3/4 161/4/4 43/4/4
f 96/3/3 88/3/3 86/3/3 94/3/3
f 64/1/5 112/1/5 111/4/5 63/4/5
f 98/2/3 90/2/3 92/2/3 100/2/3
f 97/1/2 89/1/2 90/2/2 98/2/2
f 99/1/1 91/1/1 89/1/1 97/1/1
f 100/2/4 92/2/4 91/1/4 99/1/4
f 101/4/1 93/4/1 95/4/1 103/4/1
f 102/3/4 94/3/4 93/4/4 101/4/4
f 104/3/3 96/3/3 94/3/3 102/3/3
f 103/4/2 95/4/2 96/3/2 104/3/2
f 106/2/3 98/2/3 100/2/3 108/2/3
f 105/1/2 97/1/2 98/2/2 106/2/2
f 107/1/1 99/1/1 97/1/1 105/1/1
f 156/4/1 45/4/1 72/4/1 159/4/1
f 109/4/1 101/4/1 103/4/1 111/4/1
f 170/3/4 168/3/4 167/4/4 169/4/4
f 112/3/3 104/3/3 102/3/3 110/3/3
f 200/12/5 199/13/5 197/3/5 193/3/5
f 114/2/3 106/2/3 108/2/3 116/2/3
f 113/1/2 105/1/2 106/2/2 114/2/2
f 115/1/1 107/1/1 105/1/1 113/1/1
f 116/2/4 108/2/4 107/1/4 115/1/4
f 205/14/2 201/14/2 199/13/2 203/13/2
f 206/11/1 202/11/1 201/14/1 205/14/1
f 204/12/4 200/12/4 202/11/4 206/11/4
f 203/13/3 199/13/3 200/12/3 204/12/3
f 122/2/3 114/2/3 116/2/3 124/2/3
f 121/1/7 122/2/7 122/2/7
f 123/1/1 115/1/1 113/1/1 121/1/1
f 157/3/3 46/3/3 47/3/3 155/3/3
f 125/4/1 117/4/1 119/4/1 127/4/1
f 121/4/5 125/4/5 126/3/5 122/3/5
f 128/3/3 120/3/3 118/3/3 126/3/3
f 78/4/2 80/4/2 79/3/2 77/3/2
f 130/2/3 122/2/3 124/2/3 132/2/3
f 129/1/2 121/1/2 122/2/2 130/2/2
f 131/1/1 123/1/1 121/1/1 129/1/1
f 132/2/4 124/2/4 123/1/4 131/1/4
f 133/4/1 125/4/1 127/4/1 135/4/1
f 134/3/4 126/3/4 125/4/4 133/4/4
f 136/3/3 128/3/3 126/3/3 134/3/3
f 135/4/2 127/4/2 128/3/2 136/3/2
f 138/2/3 130/2/3 132/2/3 140/2/3
f 150/2/5 171/2/5 176/1/5 149/1/5
f 139/1/1 131/1/1 129/1/1 137/1/1
f 160/1/6 71/1/6 48/4/6 158/4/6
f 141/4/1 133/4/1 135/4/1 143/4/1
f 142/2/3 172/2/3 171/2/3 150/2/3
f 144/3/3 136/3/3 134/3/3 142/3/3
f 55/4/2 53/4/2 54/3/2 56/3/2
f 146/2/3 138/2/3 140/2/3 148/2/3
f 149/1/1 176/1/1 175/1/1 141/1/1
f 147/1/1 139/1/1 137/1/1 145/1/1
f 158/4/3 48/4/3 46/3/3 157/3/3
f 149/4/1 141/4/1 143/4/1 151/4/1
f 141/1/1 175/1/1 174/1/1 133/1/1
f 152/3/3 144/3/3 142/3/3 150/3/3
f 69/4/2 55/4/2 56/3/2 70/3/2
f 134/2/3 173/2/3 172/2/3 142/2/3
f 113/4/1 117/4/1 125/4/1 121/4/1
f 114/3/6 118/3/6 117/4/6 113/4/6
f 122/3/3 126/3/3 118/3/3 114/3/3
f 122/2/7 114/2/7 114/2/7
f 114/2/7 113/1/7 113/1/7
f 113/1/7 121/1/7 121/1/7
f 72/2/1 28/2/1 27/1/1 71/1/1
f 48/4/3 29/4/3 30/3/3 46/3/3
f 71/1/6 27/1/6 29/4/6 48/4/6
f 46/3/3 30/3/3 35/3/3 47/3/3
f 45/4/1 34/4/1 28/4/1 72/4/1
f 47/3/5 35/3/5 34/4/5 45/4/5
f 85/1/6 86/4/6 88/3/6 87/2/6
f 163/3/6 87/3/6 88/2/6 164/2/6
f 165/4/1 95/4/1 87/3/1 163/3/1
f 166/1/5 96/1/5 95/4/5 165/4/5
f 164/2/3 88/2/3 96/1/3 166/1/3
f 167/4/1 101/4/1 109/4/1 169/4/1
f 168/3/6 102/3/6 101/4/6 167/4/6
f 170/3/3 110/3/3 102/3/3 168/3/3
f 169/4/5 109/4/5 110/3/5 170/3/5
f 108/1/4 100/4/4 99/3/4 107/2/4
f 92/1/4 84/4/4 83/3/4 91/2/4
f 124/1/4 116/4/4 115/3/4 123/2/4
f 76/1/4 68/4/4 67/3/4 75/2/4
f 51/1/4 59/4/4 60/3/4 52/2/4
f 172/2/3 178/2/3 177/2/3 171/2/3
f 173/2/3 179/2/3 178/2/3 172/2/3
f 186/7/6 185/9/6 179/2/6 173/2/6
f 175/1/1 181/1/1 180/1/1 174/1/1
f 176/1/1 182/1/1 181/1/1 175/1/1
f 171/2/5 177/2/5 182/1/5 176/1/5
f 178/2/3 138/2/3 146/2/3 177/2/3
f 179/2/3 130/2/3 138/2/3 178/2/3
f 181/1/1 137/1/1 129/1/1 180/1/1
f 182/1/1 145/1/1 137/1/1 181/1/1
f 177/2/5 146/2/5 145/1/5 182/1/5
f 184/8/6 174/1/6 180/1/6 183/10/6
f 190/7/6 188/8/6 187/10/6 189/9/6
f 187/10/4 183/10/4 185/9/4 189/9/4
f 188/8/1 184/8/1 183/10/1 187/10/1
f 190/7/2 186/7/2 184/8/2 188/8/2
f 189/9/3 185/9/3 186/7/3 190/7/3
f 192/4/1 43/4/1 161/4/1 191/4/1
f 194/3/3 162/3/3 44/3/3 193/3/3
f 191/4/6 161/4/6 162/3/6 194/3/6
f 196/3/6 86/3/6 85/4/6 195/4/6
f 197/3/3 94/3/3 86/3/3 196/3/3
f 195/4/1 85/4/1 93/4/1 198/4/1
f 204/12/5 206/11/5 205/14/5 203/13/5
f 202/11/5 192/4/5 198/4/5 201/14/5
f 119/1/6 117/4/6 118/3/6 120/2/6
f 112/1/5 110/4/5 109/3/5 111/2/5

v -59.36091613769531 213.2706298828125 26.56574821472168
v -59.36091613769531 260.65545654296875 26.56574821472168
v 9.84178924560547 213.2706298828125 26.56574821472168
v 9.84178924560547 260.65545654296875 26.56574821472168
v 9.84178924560547 213.2706298828125 -23.43425178527832
v 9.84178924560547 260.65545654296875 -23.43425178527832
v -59.36091613769531 213.2706298828125 -23.43425178527832
v -59.36091613769531 260.65545654296875 -23.43425178527832
# 8 vertices

# 0 normal

# 0 texture coordinate

o 立方体.2
usemtl default
f 209/4/1 210/3/1 208/2/1 207/1/1
f 211/4/2 212/3/2 210/2/2 209/1/2
f 213/4/3 214/3/3 212/2/3 211/1/3
f 207/4/4 208/3/4 214/2/4 213/1/4
f 210/4/5 212/3/5 214/2/5 208/1/5
f 211/4/6 209/3/6 207/2/6 213/1/6

v 10.49712085723877 213.2706298828125 26.56574821472168
v 10.49712085723877 260.65545654296875 26.56574821472168
v 79.82997131347656 213.2706298828125 26.56574821472168
v 79.82997131347656 260.65545654296875 26.56574821472168
v 79.82997131347656 213.2706298828125 -23.43425178527832
v 79.82997131347656 260.65545654296875 -23.43425178527832
v 10.49712085723877 213.2706298828125 -23.43425178527832
v 10.49712085723877 260.65545654296875 -23.43425178527832
# 8 vertices

# 0 normal

# 0 texture coordinate

o 立方体.5
usemtl default
f 217/4/1 218/3/1 216/2/1 215/1/1
f 219/4/2 220/3/2 218/2/2 217/1/2
f 221/4/3 222/3/3 220/2/3 219/1/3
f 215/4/4 216/3/4 222/2/4 221/1/4
f 218/4/5 220/3/5 222/2/5 216/1/5
f 219/4/6 217/3/6 215/2/6 221/1/6

v 80.92624664306641 213.2706298828125 26.56574821472168
v 80.92624664306641 260.65545654296875 26.56574821472168
v 150.25909423828125 213.2706298828125 26.56574821472168
v 150.25909423828125 260.65545654296875 26.56574821472168
v 150.25909423828125 213.2706298828125 -23.43425178527832
v 150.25909423828125 260.65545654296875 -23.43425178527832
v 80.92624664306641 213.2706298828125 -23.43425178527832
v 80.92624664306641 260.65545654296875 -23.43425178527832
# 8 vertices

# 0 normal

# 0 texture coordinate

o 立方体.6
usemtl default
f 225/4/1 226/3/1 224/2/1 223/1/1
f 227/4/2 228/3/2 226/2/2 225/1/2
f 229/4/3 230/3/3 228/2/3 227/1/3
f 223/4/4 224/3/4 230/2/4 229/1/4
f 226/4/5 228/3/5 230/2/5 224/1/5
f 227/4/6 225/3/6 223/2/6 229/1/6

